<?xml version="1.0" encoding="UTF-8" standalone="no"?>
<!-- Created with Inkscape (http://www.inkscape.org/) -->

<svg
   xmlns:dc="http://purl.org/dc/elements/1.1/"
   xmlns:cc="http://creativecommons.org/ns#"
   xmlns:rdf="http://www.w3.org/1999/02/22-rdf-syntax-ns#"
   xmlns:svg="http://www.w3.org/2000/svg"
   xmlns="http://www.w3.org/2000/svg"
   xmlns:sodipodi="http://sodipodi.sourceforge.net/DTD/sodipodi-0.dtd"
   xmlns:inkscape="http://www.inkscape.org/namespaces/inkscape"
   width="12"
   height="12"
   id="svg2"
   version="1.1"
   inkscape:version="0.48.5 r10040"
   sodipodi:docname="indicator-reverted.svg">
  <defs
     id="defs4" />
  <sodipodi:namedview
     id="base"
     pagecolor="#ffffff"
     bordercolor="#666666"
     borderopacity="1.0"
     inkscape:pageopacity="0.0"
     inkscape:pageshadow="2"
     inkscape:zoom="11.2"
     inkscape:cx="-18.316169"
     inkscape:cy="1.1799073"
     inkscape:document-units="px"
     inkscape:current-layer="g3"
     showgrid="false"
     inkscape:window-width="1366"
     inkscape:window-height="716"
     inkscape:window-x="-8"
     inkscape:window-y="-8"
     inkscape:window-maximized="1" />
  <metadata
     id="metadata7">
    <rdf:RDF>
      <cc:Work
         rdf:about="">
        <dc:format>image/svg+xml</dc:format>
        <dc:type
           rdf:resource="http://purl.org/dc/dcmitype/StillImage" />
        <dc:title />
      </cc:Work>
    </rdf:RDF>
  </metadata>
  <g
     inkscape:label="Layer 1"
     inkscape:groupmode="layer"
     id="layer1"
     transform="translate(0,-1040.3622)">
    <g
       id="g5"
       transform="matrix(0.02142217,0,0,0.02142217,2.4450179,1038.9605)">
      <g
         transform="matrix(1.0806835,0,0,1.0806835,-9.4512707,-25.344428)"
         id="g3">
        <path
           inkscape:connector-curvature="0"
           d="m 168.73201,502.11475 c 65.69471,0 119.13507,-53.44035 119.13507,-119.13507 0,-65.69472 -53.44036,-119.13507 -119.13507,-119.13507 v 79.42338 L 36.359709,237.37015 168.73201,131.47231 v 79.42338 c 94.88446,0 172.08399,77.20035 172.08399,172.08399 0,94.88446 -77.19953,172.08399 -172.08399,172.08399 -94.883641,0 -172.0839891,-77.19953 -172.0839891,-172.08399 H 49.596937 c 0,65.69472 53.440363,119.13507 119.135073,119.13507 z"
           id="path5"
           style="fill:#3074a6;fill-opacity:1" />
      </g>
    </g>
  </g>
</svg>
