<?xml version="1.0" encoding="UTF-8" standalone="no"?>
<!-- Created with Inkscape (http://www.inkscape.org/) -->

<svg
   xmlns:dc="http://purl.org/dc/elements/1.1/"
   xmlns:cc="http://creativecommons.org/ns#"
   xmlns:rdf="http://www.w3.org/1999/02/22-rdf-syntax-ns#"
   xmlns:svg="http://www.w3.org/2000/svg"
   xmlns="http://www.w3.org/2000/svg"
   xmlns:sodipodi="http://sodipodi.sourceforge.net/DTD/sodipodi-0.dtd"
   xmlns:inkscape="http://www.inkscape.org/namespaces/inkscape"
   width="400"
   height="400"
   id="svg3007"
   version="1.1"
   inkscape:version="0.48.5 r10040"
   sodipodi:docname="metatron-cube-logo-blue-light.svg"
   inkscape:export-filename="C:\projects\git\Metatron\logo\metatron-cube-logo-blue-light.png"
   inkscape:export-xdpi="90"
   inkscape:export-ydpi="90">
  <defs
     id="defs3009" />
  <sodipodi:namedview
     id="base"
     pagecolor="#ffffff"
     bordercolor="#666666"
     borderopacity="1.0"
     inkscape:pageopacity="0.0"
     inkscape:pageshadow="2"
     inkscape:zoom="0.35"
     inkscape:cx="375"
     inkscape:cy="520"
     inkscape:document-units="px"
     inkscape:current-layer="layer1"
     showgrid="false"
     height="1488.19px"
     inkscape:window-width="1366"
     inkscape:window-height="746"
     inkscape:window-x="1358"
     inkscape:window-y="-8"
     inkscape:window-maximized="1" />
  <metadata
     id="metadata3012">
    <rdf:RDF>
      <cc:Work
         rdf:about="">
        <dc:format>image/svg+xml</dc:format>
        <dc:type
           rdf:resource="http://purl.org/dc/dcmitype/StillImage" />
        <dc:title></dc:title>
      </cc:Work>
    </rdf:RDF>
  </metadata>
  <g
     inkscape:label="Layer 1"
     inkscape:groupmode="layer"
     id="layer1"
     transform="translate(0,-652.36205)">
    <g
       style="fill:#1a1a1a;fill-opacity:1;stroke:none"
       id="g7542-7-1"
       transform="matrix(0.69524813,0,0,0.69524813,53.316883,685.60249)">
      <path
         id="path1933-4-4"
         style="fill:#1a1a1a;fill-opacity:1;stroke:none"
         d="m 262.5,241.5 a 47,47 0 1 1 -94,0 47,47 0 1 1 94,0 z"
         inkscape:connector-curvature="0" />
      <path
         id="path1961-0-2"
         style="fill:#1a1a1a;fill-opacity:1;stroke:none"
         d="m 262.5,335.5 a 47,47 0 1 1 -94,0 47,47 0 1 1 94,0 z"
         inkscape:connector-curvature="0" />
      <path
         id="path1967-9-3"
         style="fill:#1a1a1a;fill-opacity:1;stroke:none"
         d="m 262.5,147.5 a 47,47 0 1 1 -94,0 47,47 0 1 1 94,0 z"
         inkscape:connector-curvature="0" />
      <path
         id="path1971-4-2"
         style="fill:#1a1a1a;fill-opacity:1;stroke:none"
         d="m 180.5,194.5 a 47,47 0 1 1 -94,0 47,47 0 1 1 94,0 z"
         inkscape:connector-curvature="0" />
      <path
         id="path1973-8-2"
         style="fill:#1a1a1a;fill-opacity:1;stroke:none"
         d="m 344.5,194.5 a 47,47 0 1 1 -94,0 47,47 0 1 1 94,0 z"
         inkscape:connector-curvature="0" />
      <path
         id="path1979-8-1"
         style="fill:#1a1a1a;fill-opacity:1;stroke:none"
         d="m 180.5,288.5 a 47,47 0 1 1 -94,0 47,47 0 1 1 94,0 z"
         inkscape:connector-curvature="0" />
      <path
         id="path1981-2-6"
         style="fill:#1a1a1a;fill-opacity:1;stroke:none"
         d="m 344.5,288.5 a 47,47 0 1 1 -94,0 47,47 0 1 1 94,0 z"
         inkscape:connector-curvature="0" />
      <path
         id="path1963-4-8"
         style="fill:#1a1a1a;fill-opacity:1;stroke:none"
         d="m 262.5,429.5 a 47,47 0 1 1 -94,0 47,47 0 1 1 94,0 z"
         inkscape:connector-curvature="0" />
      <path
         id="path1965-5-5"
         style="fill:#1a1a1a;fill-opacity:1;stroke:none"
         d="m 262.5,53.5 a 47,47 0 1 1 -94,0 47,47 0 1 1 94,0 z"
         inkscape:connector-curvature="0" />
      <path
         id="path1969-5-7"
         style="fill:#1a1a1a;fill-opacity:1;stroke:none"
         d="m 98.5,147.5 a 47,47 0 1 1 -94,0 47,47 0 1 1 94,0 z"
         inkscape:connector-curvature="0" />
      <path
         id="path1975-1-6"
         style="fill:#1a1a1a;fill-opacity:1;stroke:none"
         d="m 426.5,147.5 a 47,47 0 1 1 -94,0 47,47 0 1 1 94,0 z"
         inkscape:connector-curvature="0" />
      <path
         id="path1977-7-1"
         style="fill:#1a1a1a;fill-opacity:1;stroke:none"
         d="m 98.5,335.5 a 47,47 0 1 1 -94,0 47,47 0 1 1 94,0 z"
         inkscape:connector-curvature="0" />
      <path
         id="path1983-1-8"
         style="fill:#1a1a1a;fill-opacity:1;stroke:none"
         d="m 426.5,335.5 a 47,47 0 1 1 -94,0 47,47 0 1 1 94,0 z"
         inkscape:connector-curvature="0" />
    </g>
    <path
       inkscape:connector-curvature="0"
       d="m 203.14284,722.79811 114.02073,65.35337 0,130.70677 -114.02073,65.35337 -114.020684,-65.35337 0,-130.70677 114.020684,-65.35337 z"
       style="fill:#1a1a1a;fill-opacity:1;stroke:none"
       id="path2886-1-9" />
    <path
       inkscape:connector-curvature="0"
       d="m 89.122156,788.15148 114.020684,196.06014 114.02073,-196.06014 -228.041414,0 z"
       style="fill:#37abc8;fill-opacity:1;stroke:none"
       id="path2890-5-2" />
    <path
       inkscape:connector-curvature="0"
       d="m 203.14284,722.79811 -114.020684,196.06014 228.041414,0 -114.02073,-196.06014 z"
       style="fill:#0088aa;fill-opacity:1;stroke:none"
       id="path2888-2-79" />
    <path
       inkscape:connector-curvature="0"
       d="m 202.03272,822.78963 -29.44779,50.63608 58.89559,0 -29.4478,-50.63608 z"
       style="fill:#aaeeff;fill-opacity:1;stroke:none;display:inline"
       id="path2888-2-7-5" />
  </g>
</svg>
