<?xml version="1.0" encoding="UTF-8" standalone="no"?>
<!-- Created with Inkscape (http://www.inkscape.org/) -->

<svg
   xmlns:dc="http://purl.org/dc/elements/1.1/"
   xmlns:cc="http://creativecommons.org/ns#"
   xmlns:rdf="http://www.w3.org/1999/02/22-rdf-syntax-ns#"
   xmlns:svg="http://www.w3.org/2000/svg"
   xmlns="http://www.w3.org/2000/svg"
   xmlns:sodipodi="http://sodipodi.sourceforge.net/DTD/sodipodi-0.dtd"
   xmlns:inkscape="http://www.inkscape.org/namespaces/inkscape"
   width="400"
   height="400"
   id="svg3007"
   version="1.1"
   inkscape:version="0.48.5 r10040"
   sodipodi:docname="metatron-cube-logo-blue-dark.svg"
   inkscape:export-filename="C:\projects\git\Metatron\logo\metatron-cube-logo-blue-dark.png"
   inkscape:export-xdpi="90"
   inkscape:export-ydpi="90">
  <defs
     id="defs3009" />
  <sodipodi:namedview
     id="base"
     pagecolor="#ffffff"
     bordercolor="#666666"
     borderopacity="1.0"
     inkscape:pageopacity="0.0"
     inkscape:pageshadow="2"
     inkscape:zoom="0.7"
     inkscape:cx="-37.128482"
     inkscape:cy="251.45868"
     inkscape:document-units="px"
     inkscape:current-layer="layer1"
     showgrid="false"
     height="1488.19px"
     inkscape:window-width="1366"
     inkscape:window-height="746"
     inkscape:window-x="1358"
     inkscape:window-y="-8"
     inkscape:window-maximized="1" />
  <metadata
     id="metadata3012">
    <rdf:RDF>
      <cc:Work
         rdf:about="">
        <dc:format>image/svg+xml</dc:format>
        <dc:type
           rdf:resource="http://purl.org/dc/dcmitype/StillImage" />
        <dc:title></dc:title>
      </cc:Work>
    </rdf:RDF>
  </metadata>
  <g
     inkscape:label="Layer 1"
     inkscape:groupmode="layer"
     id="layer1"
     transform="translate(0,-652.36205)">
    <path
       id="path1933-4-4"
       style="fill:#dbe2e3;fill-opacity:1;stroke:none"
       d="m 235.78837,852.36184 a 32.645522,32.645522 0 0 1 -65.29103,0 32.645522,32.645522 0 1 1 65.29103,0 z"
       inkscape:connector-curvature="0" />
    <path
       id="path1961-0-2"
       style="fill:#dbe2e3;fill-opacity:1;stroke:none"
       d="m 235.78837,917.65288 a 32.645522,32.645522 0 0 1 -65.29103,0 32.645522,32.645522 0 1 1 65.29103,0 z"
       inkscape:connector-curvature="0" />
    <path
       id="path1967-9-3"
       style="fill:#dbe2e3;fill-opacity:1;stroke:none"
       d="m 235.78837,787.0708 a 32.645522,32.645522 0 0 1 -65.29103,0 32.645522,32.645522 0 1 1 65.29103,0 z"
       inkscape:connector-curvature="0" />
    <path
       id="path1971-4-2"
       style="fill:#dbe2e3;fill-opacity:1;stroke:none"
       d="m 178.83234,819.71634 a 32.645522,32.645522 0 0 1 -65.29104,0 32.645522,32.645522 0 1 1 65.29104,0 z"
       inkscape:connector-curvature="0" />
    <path
       id="path1973-8-2"
       style="fill:#dbe2e3;fill-opacity:1;stroke:none"
       d="m 292.74437,819.71634 a 32.645518,32.645518 0 0 1 -65.291,0 32.645518,32.645518 0 1 1 65.291,0 z"
       inkscape:connector-curvature="0" />
    <path
       id="path1979-8-1"
       style="fill:#dbe2e3;fill-opacity:1;stroke:none"
       d="m 178.83234,885.00738 a 32.645522,32.645522 0 0 1 -65.29104,0 32.645522,32.645522 0 1 1 65.29104,0 z"
       inkscape:connector-curvature="0" />
    <path
       id="path1981-2-6"
       style="fill:#dbe2e3;fill-opacity:1;stroke:none"
       d="m 292.74437,885.00738 a 32.645518,32.645518 0 0 1 -65.291,0 32.645518,32.645518 0 1 1 65.291,0 z"
       inkscape:connector-curvature="0" />
    <path
       id="path1963-4-8"
       style="fill:#dbe2e3;fill-opacity:1;stroke:none"
       d="m 235.78837,982.94392 a 32.645522,32.645522 0 0 1 -65.29103,0 32.645522,32.645522 0 1 1 65.29103,0 z"
       inkscape:connector-curvature="0" />
    <path
       id="path1965-5-5"
       style="fill:#dbe2e3;fill-opacity:1;stroke:none"
       d="m 235.78837,721.77977 a 32.645522,32.645522 0 0 1 -65.29103,0 32.645522,32.645522 0 1 1 65.29103,0 z"
       inkscape:connector-curvature="0" />
    <path
       id="path1969-5-7"
       style="fill:#dbe2e3;fill-opacity:1;stroke:none"
       d="m 121.87636,787.0708 a 32.645523,32.645523 0 0 1 -65.291044,0 32.645523,32.645523 0 1 1 65.291044,0 z"
       inkscape:connector-curvature="0" />
    <path
       id="path1975-1-6"
       style="fill:#dbe2e3;fill-opacity:1;stroke:none"
       d="m 349.70041,787.0708 a 32.645525,32.645525 0 0 1 -65.29105,0 32.645525,32.645525 0 1 1 65.29105,0 z"
       inkscape:connector-curvature="0" />
    <path
       id="path1977-7-1"
       style="fill:#dbe2e3;fill-opacity:1;stroke:none"
       d="m 121.87636,917.65288 a 32.645523,32.645523 0 0 1 -65.291044,0 32.645523,32.645523 0 1 1 65.291044,0 z"
       inkscape:connector-curvature="0" />
    <path
       id="path1983-1-8"
       style="fill:#dbe2e3;fill-opacity:1;stroke:none"
       d="m 349.70041,917.65288 a 32.645525,32.645525 0 0 1 -65.29105,0 32.645525,32.645525 0 1 1 65.29105,0 z"
       inkscape:connector-curvature="0" />
    <path
       inkscape:connector-curvature="0"
       d="m 203.14282,721.77977 113.91208,65.29103 0,130.58213 -113.91208,65.29107 -113.912005,-65.29107 0,-130.58213 113.912005,-65.29103 z"
       style="fill:#dbe2e3;fill-opacity:1;stroke:none"
       id="path2886-1-9" />
    <path
       inkscape:connector-curvature="0"
       d="M 89.230815,787.0708 203.14282,982.944 317.0549,787.0708 l -227.824085,0 z"
       style="fill:#37abc8;fill-opacity:1;stroke:none"
       id="path2890-5-2" />
    <path
       inkscape:connector-curvature="0"
       d="m 203.14282,721.77977 -113.912005,195.87316 227.824085,0 -113.91208,-195.87316 z"
       style="fill:#0088aa;fill-opacity:1;stroke:none"
       id="path2888-2-79" />
    <path
       inkscape:connector-curvature="0"
       d="m 202.03378,821.67566 -29.41973,50.58803 58.83945,0 -29.41972,-50.58803 z"
       style="fill:#aaeeff;fill-opacity:1;stroke:none;display:inline"
       id="path2888-2-7-5" />
  </g>
</svg>
