<?xml version="1.0" encoding="UTF-8" standalone="no"?>
<!-- Created with Inkscape (http://www.inkscape.org/) -->

<svg
   xmlns:dc="http://purl.org/dc/elements/1.1/"
   xmlns:cc="http://creativecommons.org/ns#"
   xmlns:rdf="http://www.w3.org/1999/02/22-rdf-syntax-ns#"
   xmlns:svg="http://www.w3.org/2000/svg"
   xmlns="http://www.w3.org/2000/svg"
   xmlns:sodipodi="http://sodipodi.sourceforge.net/DTD/sodipodi-0.dtd"
   xmlns:inkscape="http://www.inkscape.org/namespaces/inkscape"
   width="35"
   height="35"
   id="svg2"
   version="1.1"
   inkscape:version="0.48.5 r10040"
   sodipodi:docname="any.svg">
  <defs
     id="defs4" />
  <sodipodi:namedview
     id="base"
     pagecolor="#ffffff"
     bordercolor="#666666"
     borderopacity="1.0"
     inkscape:pageopacity="0.0"
     inkscape:pageshadow="2"
     inkscape:zoom="7.919596"
     inkscape:cx="13.31367"
     inkscape:cy="22.247913"
     inkscape:document-units="px"
     inkscape:current-layer="layer1"
     showgrid="false"
     inkscape:window-width="1366"
     inkscape:window-height="716"
     inkscape:window-x="-8"
     inkscape:window-y="-8"
     inkscape:window-maximized="1" />
  <metadata
     id="metadata7">
    <rdf:RDF>
      <cc:Work
         rdf:about="">
        <dc:format>image/svg+xml</dc:format>
        <dc:type
           rdf:resource="http://purl.org/dc/dcmitype/StillImage" />
        <dc:title />
      </cc:Work>
    </rdf:RDF>
  </metadata>
  <g
     inkscape:label="Layer 1"
     inkscape:groupmode="layer"
     id="layer1"
     transform="translate(0,-1017.3622)">
    <path
       inkscape:connector-curvature="0"
       style="fill:#949494;fill-opacity:1;stroke:none"
       d="m 10.425128,1020.328 c -1.2325696,0 -2.2166662,0.984 -2.2166662,2.2165 l 0,14.567 c 0,1.2325 0.9840966,2.2165 2.2166662,2.2165 l 14.566667,0 c 1.23257,0 2.216666,-0.984 2.216666,-2.2165 l 0,-14.567 c 0,-1.2325 -0.984096,-2.2165 -2.216666,-2.2165 l -14.566667,0 z m 8.7875,1.6625 c 0.139793,0 0.26969,0.036 0.376041,0.1385 l 3.186459,3.1865 c 0.09869,0.099 0.158333,0.2242 0.158333,0.3759 0,0.1521 -0.05965,0.2968 -0.158333,0.396 l -3.186459,3.1865 c -0.212702,0.2127 -0.559173,0.2127 -0.771875,0 -0.212701,-0.2127 -0.212701,-0.5394 0,-0.7522 l 2.295833,-2.2759 -8.09479,0 c -0.296538,4e-4 -0.534375,-0.2577 -0.534375,-0.5544 0,-0.2963 0.237837,-0.5145 0.534375,-0.5145 l 8.09479,0 -2.295833,-2.2958 c -0.212701,-0.2126 -0.212701,-0.5393 0,-0.7521 0.106351,-0.1026 0.256041,-0.1385 0.395834,-0.1385 z m 0,8.2333 c 0.139793,0 0.26969,0.036 0.376041,0.1387 l 3.186459,3.1864 c 0.09869,0.099 0.158333,0.2439 0.158333,0.3958 0,0.1518 -0.05965,0.2769 -0.158333,0.3761 l -3.186459,3.1865 c -0.212702,0.2126 -0.559173,0.2126 -0.771875,0 -0.212701,-0.2128 -0.212701,-0.5395 0,-0.7523 l 2.295833,-2.2759 -1.009374,0 0,-1.0688 1.009374,0 -2.295833,-2.276 c -0.212701,-0.2128 -0.212701,-0.559 0,-0.7718 0.106351,-0.1027 0.256041,-0.1387 0.395834,-0.1387 z m -6.194791,3.1865 0.831249,0 0,1.0688 -0.831249,0 c -0.296538,0 -0.534375,-0.2378 -0.534375,-0.5344 0,-0.2965 0.237837,-0.5344 0.534375,-0.5344 z m 1.6625,0 1.029166,0 0,1.0688 -1.029166,0 0,-1.0688 z m 1.860416,0 0.95,0 0,1.0688 -0.95,0 0,-1.0688 z m 1.801042,0 0.930207,0 0,1.0688 -0.930207,0 0,-1.0688 z"
       id="rect2985" />
  </g>
</svg>
