<?xml version="1.0" encoding="UTF-8" standalone="no"?>
<!-- Created with Inkscape (http://www.inkscape.org/) -->

<svg
   xmlns:dc="http://purl.org/dc/elements/1.1/"
   xmlns:cc="http://creativecommons.org/ns#"
   xmlns:rdf="http://www.w3.org/1999/02/22-rdf-syntax-ns#"
   xmlns:svg="http://www.w3.org/2000/svg"
   xmlns="http://www.w3.org/2000/svg"
   xmlns:sodipodi="http://sodipodi.sourceforge.net/DTD/sodipodi-0.dtd"
   xmlns:inkscape="http://www.inkscape.org/namespaces/inkscape"
   width="35"
   height="35"
   id="svg2"
   version="1.1"
   inkscape:version="0.48.5 r10040"
   sodipodi:docname="custom-task.svg">
  <defs
     id="defs4" />
  <sodipodi:namedview
     id="base"
     pagecolor="#ffffff"
     bordercolor="#666666"
     borderopacity="1.0"
     inkscape:pageopacity="0.0"
     inkscape:pageshadow="2"
     inkscape:zoom="7.919596"
     inkscape:cx="15.238603"
     inkscape:cy="28.640835"
     inkscape:document-units="px"
     inkscape:current-layer="layer1"
     showgrid="false"
     inkscape:window-width="1366"
     inkscape:window-height="716"
     inkscape:window-x="-8"
     inkscape:window-y="-8"
     inkscape:window-maximized="1" />
  <metadata
     id="metadata7">
    <rdf:RDF>
      <cc:Work
         rdf:about="">
        <dc:format>image/svg+xml</dc:format>
        <dc:type
           rdf:resource="http://purl.org/dc/dcmitype/StillImage" />
        <dc:title />
      </cc:Work>
    </rdf:RDF>
  </metadata>
  <g
     inkscape:label="Layer 1"
     inkscape:groupmode="layer"
     id="layer1"
     transform="translate(0,-1017.3622)">
    <path
       style="fill:#a68ed4;fill-opacity:1;stroke:none"
       d="m 6.3489212,1020.3408 c -1.2271015,0 -2.2170998,0.99 -2.2170998,2.2171 l 0,11.8382 c 0,1.2271 0.9899983,2.2171 2.2170998,2.2171 l 21.6014648,0 c 1.227102,0 2.2171,-0.99 2.2171,-2.2171 l 0,-11.8382 c 0,-1.2271 -0.989998,-2.2171 -2.2171,-2.2171 l -21.6014648,0 z m 1.3221233,1.2205 0.8136143,0 c 0.3605946,0 0.6508919,0.2902 0.6508919,0.6508 l 0,12.5298 c 0,0.3606 -0.2902973,0.6508 -0.6508919,0.6508 l -0.8136143,0 c -0.3605938,0 -0.6508919,-0.2902 -0.6508919,-0.6508 l 0,-12.5298 c 0,-0.3606 0.2902981,-0.6508 0.6508919,-0.6508 z"
       id="rect2985"
       inkscape:connector-curvature="0" />
  </g>
</svg>
