<?xml version="1.0" encoding="UTF-8" standalone="no"?>
<!-- Generator: Adobe Illustrator 16.0.0, SVG Export Plug-In . SVG Version: 6.00 Build 0)  -->

<svg
   xmlns:dc="http://purl.org/dc/elements/1.1/"
   xmlns:cc="http://creativecommons.org/ns#"
   xmlns:rdf="http://www.w3.org/1999/02/22-rdf-syntax-ns#"
   xmlns:svg="http://www.w3.org/2000/svg"
   xmlns="http://www.w3.org/2000/svg"
   xmlns:sodipodi="http://sodipodi.sourceforge.net/DTD/sodipodi-0.dtd"
   xmlns:inkscape="http://www.inkscape.org/namespaces/inkscape"
   version="1.1"
   id="Capa_1"
   x="0px"
   y="0px"
   width="30"
   height="30"
   viewBox="0 0 30 30"
   xml:space="preserve"
   inkscape:version="0.48.5 r10040"
   sodipodi:docname="delete.svg"><metadata
   id="metadata49"><rdf:RDF><cc:Work
       rdf:about=""><dc:format>image/svg+xml</dc:format><dc:type
         rdf:resource="http://purl.org/dc/dcmitype/StillImage" /></cc:Work></rdf:RDF></metadata><defs
   id="defs47" /><sodipodi:namedview
   pagecolor="#ffffff"
   bordercolor="#666666"
   borderopacity="1"
   objecttolerance="10"
   gridtolerance="10"
   guidetolerance="10"
   inkscape:pageopacity="0"
   inkscape:pageshadow="2"
   inkscape:window-width="1366"
   inkscape:window-height="716"
   id="namedview45"
   showgrid="false"
   inkscape:zoom="9.753754"
   inkscape:cx="7.421518"
   inkscape:cy="7.8936641"
   inkscape:window-x="-8"
   inkscape:window-y="-8"
   inkscape:window-maximized="1"
   inkscape:current-layer="Capa_1" />
<g
   id="g3"
   style="fill:#999999;fill-opacity:1"
   transform="matrix(0.01937316,0,0,0.01937316,7.4112588,7.5671947)">
	<g
   id="g5"
   style="fill:#999999;fill-opacity:1">
		<path
   d="M 640.35,91.169 H 536.971 V 23.991 C 536.971,10.469 526.064,0 512.543,0 511.231,0 510.356,0.438 509.929,0.875 509.491,0.438 508.616,0 508.179,0 h -242.967 -1.74 -1.75 c -13.521,0 -23.99,10.469 -23.99,23.991 V 91.17 H 133.916 c -29.667,0 -52.783,23.116 -52.783,52.783 v 38.387 47.981 h 45.803 v 491.6 c 0,29.668 22.679,52.346 52.346,52.346 h 415.703 c 29.667,0 52.782,-22.678 52.782,-52.346 v -491.6 h 45.366 V 182.34 143.953 c 0,-29.667 -23.125,-52.784 -52.783,-52.784 z M 285.713,47.981 h 202.84 V 91.169 H 285.713 V 47.981 z m 313.636,673.941 c 0,3.061 -1.312,4.363 -4.364,4.363 H 179.282 c -3.052,0 -4.364,-1.303 -4.364,-4.363 V 230.32 H 599.349 V 721.922 z M 644.715,182.339 H 129.551 v -38.387 c 0,-3.053 1.312,-4.802 4.364,-4.802 H 640.35 c 3.053,0 4.365,1.749 4.365,4.802 v 38.387 z"
   id="path7"
   style="fill:#999999;fill-opacity:1"
   inkscape:connector-curvature="0" />
		<rect
   x="475.03101"
   y="286.59299"
   width="48.417999"
   height="396.94199"
   id="rect9"
   style="fill:#999999;fill-opacity:1" />
		<rect
   x="363.36099"
   y="286.59299"
   width="48.417999"
   height="396.94199"
   id="rect11"
   style="fill:#999999;fill-opacity:1" />
		<rect
   x="251.69"
   y="286.59299"
   width="48.417999"
   height="396.94199"
   id="rect13"
   style="fill:#999999;fill-opacity:1" />
	</g>
</g>
<g
   id="g15"
   transform="translate(0,-744.266)">
</g>
<g
   id="g17"
   transform="translate(0,-744.266)">
</g>
<g
   id="g19"
   transform="translate(0,-744.266)">
</g>
<g
   id="g21"
   transform="translate(0,-744.266)">
</g>
<g
   id="g23"
   transform="translate(0,-744.266)">
</g>
<g
   id="g25"
   transform="translate(0,-744.266)">
</g>
<g
   id="g27"
   transform="translate(0,-744.266)">
</g>
<g
   id="g29"
   transform="translate(0,-744.266)">
</g>
<g
   id="g31"
   transform="translate(0,-744.266)">
</g>
<g
   id="g33"
   transform="translate(0,-744.266)">
</g>
<g
   id="g35"
   transform="translate(0,-744.266)">
</g>
<g
   id="g37"
   transform="translate(0,-744.266)">
</g>
<g
   id="g39"
   transform="translate(0,-744.266)">
</g>
<g
   id="g41"
   transform="translate(0,-744.266)">
</g>
<g
   id="g43"
   transform="translate(0,-744.266)">
</g>
</svg>