<?xml version="1.0" encoding="UTF-8" standalone="no"?>
<!-- Generator: Adobe Illustrator 16.0.0, SVG Export Plug-In . SVG Version: 6.00 Build 0)  -->

<svg
   xmlns:dc="http://purl.org/dc/elements/1.1/"
   xmlns:cc="http://creativecommons.org/ns#"
   xmlns:rdf="http://www.w3.org/1999/02/22-rdf-syntax-ns#"
   xmlns:svg="http://www.w3.org/2000/svg"
   xmlns="http://www.w3.org/2000/svg"
   xmlns:sodipodi="http://sodipodi.sourceforge.net/DTD/sodipodi-0.dtd"
   xmlns:inkscape="http://www.inkscape.org/namespaces/inkscape"
   version="1.1"
   id="Capa_1"
   x="0px"
   y="0px"
   width="30"
   height="30"
   viewBox="0 0 30 30"
   xml:space="preserve"
   inkscape:version="0.48.5 r10040"
   sodipodi:docname="redo.svg"><metadata
   id="metadata49"><rdf:RDF><cc:Work
       rdf:about=""><dc:format>image/svg+xml</dc:format><dc:type
         rdf:resource="http://purl.org/dc/dcmitype/StillImage" /></cc:Work></rdf:RDF></metadata><defs
   id="defs47" /><sodipodi:namedview
   pagecolor="#ffffff"
   bordercolor="#666666"
   borderopacity="1"
   objecttolerance="10"
   gridtolerance="10"
   guidetolerance="10"
   inkscape:pageopacity="0"
   inkscape:pageshadow="2"
   inkscape:window-width="1366"
   inkscape:window-height="716"
   id="namedview45"
   showgrid="false"
   inkscape:zoom="9.753754"
   inkscape:cx="-24.566166"
   inkscape:cy="7.8936641"
   inkscape:window-x="-8"
   inkscape:window-y="-8"
   inkscape:window-maximized="1"
   inkscape:current-layer="Capa_1" />

<g
   id="g15"
   transform="translate(0,-744.266)">
</g>
<g
   id="g17"
   transform="translate(0,-744.266)">
</g>
<g
   id="g19"
   transform="translate(0,-744.266)">
</g>
<g
   id="g21"
   transform="translate(0,-744.266)">
</g>
<g
   id="g23"
   transform="translate(0,-744.266)">
</g>
<g
   id="g25"
   transform="translate(0,-744.266)">
</g>
<g
   id="g27"
   transform="translate(0,-744.266)">
</g>
<g
   id="g29"
   transform="translate(0,-744.266)">
</g>
<g
   id="g31"
   transform="translate(0,-744.266)">
</g>
<g
   id="g33"
   transform="translate(0,-744.266)">
</g>
<g
   id="g35"
   transform="translate(0,-744.266)">
</g>
<g
   id="g37"
   transform="translate(0,-744.266)">
</g>
<g
   id="g39"
   transform="translate(0,-744.266)">
</g>
<g
   id="g41"
   transform="translate(0,-744.266)">
</g>
<g
   id="g43"
   transform="translate(0,-744.266)">
</g>
<path
   inkscape:connector-curvature="0"
   id="path7"
   d="M 8.8832837,20.404426 C 10.230228,18.280188 11.894825,17.613177 13.942739,17.444088 V 18.6651 c 0,0.453737 0.170728,0.880284 0.480994,1.201468 0.62053,0.64237 1.704816,0.638122 2.317138,0.0042 l 5.16534,-5.274019 c 0.156775,-0.160592 0.244601,-0.377265 0.244601,-0.605833 0,-0.228568 -0.08783,-0.44524 -0.244601,-0.604983 L 16.744975,8.1152833 C 16.126087,7.4737634 15.043442,7.4729137 14.422912,8.116133 14.113467,8.4373178 13.942739,8.8638648 13.942739,9.317602 v 1.447881 c -3.791308,0.792766 -6.5664579,4.245927 -6.5664579,8.323614 v 0.849696 c 0,0.375565 0.2380345,0.706946 0.5860568,0.814007 0.077981,0.02294 0.1559537,0.03568 0.2347509,0.03568 0.2716869,0 0.5302412,-0.140199 0.6861949,-0.384062 z m 5.8613843,-4.703913 c -1.811522,0.04758 -3.806904,0.33478 -5.5470152,1.802203 0.6303803,-2.732619 2.8539472,-4.844962 5.6578242,-5.166146 0.413687,-0.04758 0.728877,-0.04418 0.728877,-0.04418 V 9.3210008 l 4.576821,4.6699252 -4.576821,4.673324 v -2.973083 c 0,0 -0.605756,0.0085 -0.839686,0.0093 z"
   style="fill:#999999;fill-opacity:0.94117647000000004;stroke:none;stroke-width:0.50000000000000000;stroke-miterlimit:4;stroke-dasharray:none" /></svg>