<?xml version="1.0" encoding="UTF-8" standalone="no"?>
<!-- Generator: Adobe Illustrator 16.0.0, SVG Export Plug-In . SVG Version: 6.00 Build 0)  -->

<svg
   xmlns:dc="http://purl.org/dc/elements/1.1/"
   xmlns:cc="http://creativecommons.org/ns#"
   xmlns:rdf="http://www.w3.org/1999/02/22-rdf-syntax-ns#"
   xmlns:svg="http://www.w3.org/2000/svg"
   xmlns="http://www.w3.org/2000/svg"
   xmlns:sodipodi="http://sodipodi.sourceforge.net/DTD/sodipodi-0.dtd"
   xmlns:inkscape="http://www.inkscape.org/namespaces/inkscape"
   version="1.1"
   id="Capa_1"
   x="0px"
   y="0px"
   width="30"
   height="30"
   viewBox="0 0 30 30"
   xml:space="preserve"
   inkscape:version="0.48.5 r10040"
   sodipodi:docname="save.svg"><metadata
   id="metadata41"><rdf:RDF><cc:Work
       rdf:about=""><dc:format>image/svg+xml</dc:format><dc:type
         rdf:resource="http://purl.org/dc/dcmitype/StillImage" /></cc:Work></rdf:RDF></metadata><defs
   id="defs39" /><sodipodi:namedview
   pagecolor="#ffffff"
   bordercolor="#666666"
   borderopacity="1"
   objecttolerance="10"
   gridtolerance="10"
   guidetolerance="10"
   inkscape:pageopacity="0"
   inkscape:pageshadow="2"
   inkscape:window-width="1366"
   inkscape:window-height="716"
   id="namedview37"
   showgrid="false"
   inkscape:zoom="8.7256055"
   inkscape:cx="23.19805"
   inkscape:cy="7.4379603"
   inkscape:window-x="-8"
   inkscape:window-y="-8"
   inkscape:window-maximized="1"
   inkscape:current-layer="g3" />
<g
   id="g3"
   style="fill:#afafaf;fill-opacity:1"
   transform="matrix(0.02124183,0,0,0.02216471,8.648305,9.2735593)">
	<path
   d="M 604.717,143.795 472.05,18.402 c -3.745,-3.529 -8.905,-5.661 -15.783,-5.661 H 22.247 C 9.708,12.741 0,22.449 0,34.988 v 542.025 c 0,12.538 9.708,22.246 22.247,22.246 h 567.507 c 12.538,0 22.246,-9.708 22.246,-22.246 V 160.38 c 0,-6.877 -2.692,-12.245 -7.283,-16.585 z M 271.012,57.64 h 75.24 v 126.609 h -75.24 V 57.64 z M 567.507,554.36 H 44.493 V 57.64 h 92.23 V 233.997 H 398.424 V 57.64 h 49.757 L 567.507,169.286 V 554.36 z"
   id="path5"
   style="fill:#808080;fill-opacity:1"
   inkscape:connector-curvature="0" />
</g>
<g
   id="g7"
   transform="translate(0,-582)">
</g>
<g
   id="g9"
   transform="translate(0,-582)">
</g>
<g
   id="g11"
   transform="translate(0,-582)">
</g>
<g
   id="g13"
   transform="translate(0,-582)">
</g>
<g
   id="g15"
   transform="translate(0,-582)">
</g>
<g
   id="g17"
   transform="translate(0,-582)">
</g>
<g
   id="g19"
   transform="translate(0,-582)">
</g>
<g
   id="g21"
   transform="translate(0,-582)">
</g>
<g
   id="g23"
   transform="translate(0,-582)">
</g>
<g
   id="g25"
   transform="translate(0,-582)">
</g>
<g
   id="g27"
   transform="translate(0,-582)">
</g>
<g
   id="g29"
   transform="translate(0,-582)">
</g>
<g
   id="g31"
   transform="translate(0,-582)">
</g>
<g
   id="g33"
   transform="translate(0,-582)">
</g>
<g
   id="g35"
   transform="translate(0,-582)">
</g>
</svg>