<?xml version="1.0" encoding="UTF-8" standalone="no"?>
<!-- Generator: Adobe Illustrator 16.0.0, SVG Export Plug-In . SVG Version: 6.00 Build 0)  -->

<svg
   xmlns:dc="http://purl.org/dc/elements/1.1/"
   xmlns:cc="http://creativecommons.org/ns#"
   xmlns:rdf="http://www.w3.org/1999/02/22-rdf-syntax-ns#"
   xmlns:svg="http://www.w3.org/2000/svg"
   xmlns="http://www.w3.org/2000/svg"
   xmlns:sodipodi="http://sodipodi.sourceforge.net/DTD/sodipodi-0.dtd"
   xmlns:inkscape="http://www.inkscape.org/namespaces/inkscape"
   version="1.1"
   id="Capa_1"
   x="0px"
   y="0px"
   width="35"
   height="35"
   viewBox="0 0 34.863281 34.863281"
   xml:space="preserve"
   inkscape:version="0.48.5 r10040"
   sodipodi:docname="trigger.svg"><metadata
   id="metadata44"><rdf:RDF><cc:Work
       rdf:about=""><dc:format>image/svg+xml</dc:format><dc:type
         rdf:resource="http://purl.org/dc/dcmitype/StillImage" /></cc:Work></rdf:RDF></metadata><defs
   id="defs42">
	

		
		
	</defs><sodipodi:namedview
   pagecolor="#ffffff"
   bordercolor="#666666"
   borderopacity="1"
   objecttolerance="10"
   gridtolerance="10"
   guidetolerance="10"
   inkscape:pageopacity="0"
   inkscape:pageshadow="2"
   inkscape:window-width="1366"
   inkscape:window-height="716"
   id="namedview40"
   showgrid="false"
   inkscape:zoom="3.6875"
   inkscape:cx="87.212659"
   inkscape:cy="37.504126"
   inkscape:window-x="-8"
   inkscape:window-y="-8"
   inkscape:window-maximized="1"
   inkscape:current-layer="Capa_1" />
<path
   style="fill:#ea8988;fill-opacity:1"
   d="m 17.397873,2.4986771 c -5.706011,0 -10.3745674,4.6685562 -10.3745674,10.3745699 0,5.706012 4.6685564,10.374568 10.3745674,10.374568 5.706012,0 10.374568,-4.668556 10.374568,-10.374568 0,-5.7060137 -4.668556,-10.3745699 -10.374568,-10.3745699 z m -1.037203,5.187285 1.556439,0 0,5.3949779 4.668049,2.801336 -0.82951,1.348745 -5.394978,-3.320573 0,-6.2244859 z"
   id="path6"
   inkscape:connector-curvature="0" />
<g
   id="g10"
   transform="translate(0,-475.13672)">
</g>
<g
   id="g12"
   transform="translate(0,-475.13672)">
</g>
<g
   id="g14"
   transform="translate(0,-475.13672)">
</g>
<g
   id="g16"
   transform="translate(0,-475.13672)">
</g>
<g
   id="g18"
   transform="translate(0,-475.13672)">
</g>
<g
   id="g20"
   transform="translate(0,-475.13672)">
</g>
<g
   id="g22"
   transform="translate(0,-475.13672)">
</g>
<g
   id="g24"
   transform="translate(0,-475.13672)">
</g>
<g
   id="g26"
   transform="translate(0,-475.13672)">
</g>
<g
   id="g28"
   transform="translate(0,-475.13672)">
</g>
<g
   id="g30"
   transform="translate(0,-475.13672)">
</g>
<g
   id="g32"
   transform="translate(0,-475.13672)">
</g>
<g
   id="g34"
   transform="translate(0,-475.13672)">
</g>
<g
   id="g36"
   transform="translate(0,-475.13672)">
</g>
<g
   id="g38"
   transform="translate(0,-475.13672)">
</g>
</svg>