<?xml version="1.0" encoding="UTF-8" standalone="no"?>
<!-- Generator: Adobe Illustrator 16.0.0, SVG Export Plug-In . SVG Version: 6.00 Build 0)  -->

<svg
   xmlns:dc="http://purl.org/dc/elements/1.1/"
   xmlns:cc="http://creativecommons.org/ns#"
   xmlns:rdf="http://www.w3.org/1999/02/22-rdf-syntax-ns#"
   xmlns:svg="http://www.w3.org/2000/svg"
   xmlns="http://www.w3.org/2000/svg"
   xmlns:sodipodi="http://sodipodi.sourceforge.net/DTD/sodipodi-0.dtd"
   xmlns:inkscape="http://www.inkscape.org/namespaces/inkscape"
   version="1.1"
   id="Capa_1"
   x="0px"
   y="0px"
   width="35"
   height="35"
   viewBox="0 0 10.11165 10.11165"
   xml:space="preserve"
   inkscape:version="0.48.5 r10040"
   sodipodi:docname="user-task.svg"><metadata
   id="metadata44"><rdf:RDF><cc:Work
       rdf:about=""><dc:format>image/svg+xml</dc:format><dc:type
         rdf:resource="http://purl.org/dc/dcmitype/StillImage" /></cc:Work></rdf:RDF></metadata><defs
   id="defs42" /><sodipodi:namedview
   pagecolor="#ffffff"
   bordercolor="#666666"
   borderopacity="1"
   objecttolerance="10"
   gridtolerance="10"
   guidetolerance="10"
   inkscape:pageopacity="0"
   inkscape:pageshadow="2"
   inkscape:window-width="1366"
   inkscape:window-height="716"
   id="namedview40"
   showgrid="false"
   inkscape:zoom="10.429825"
   inkscape:cx="-1.1396086"
   inkscape:cy="17.346047"
   inkscape:window-x="-8"
   inkscape:window-y="-8"
   inkscape:window-maximized="1"
   inkscape:current-layer="Capa_1" />

<g
   id="g10"
   transform="translate(0,-137.80735)">
</g>
<g
   id="g12"
   transform="translate(0,-137.80735)">
</g>
<g
   id="g14"
   transform="translate(0,-137.80735)">
</g>
<g
   id="g16"
   transform="translate(0,-137.80735)">
</g>
<g
   id="g18"
   transform="translate(0,-137.80735)">
</g>
<g
   id="g20"
   transform="translate(0,-137.80735)">
</g>
<g
   id="g22"
   transform="translate(0,-137.80735)">
</g>
<g
   id="g24"
   transform="translate(0,-137.80735)">
</g>
<g
   id="g26"
   transform="translate(0,-137.80735)">
</g>
<g
   id="g28"
   transform="translate(0,-137.80735)">
</g>
<g
   id="g30"
   transform="translate(0,-137.80735)">
</g>
<g
   id="g32"
   transform="translate(0,-137.80735)">
</g>
<g
   id="g34"
   transform="translate(0,-137.80735)">
</g>
<g
   id="g36"
   transform="translate(0,-137.80735)">
</g>
<g
   id="g38"
   transform="translate(0,-137.80735)">
</g>
<g
   transform="matrix(0.01652251,0,0,0.01652251,2.2378889,0.71253393)"
   id="g3"><path
     inkscape:connector-curvature="0"
     d="m 174.833,197.204 c 24.125,0 80.846,-29.034 80.846,-98.603 C 255.68,44.145 248.329,0 174.833,0 101.338,0 93.987,44.145 93.987,98.602 c 0,69.568 56.721,98.602 80.846,98.602 z M 106.07,82.146 c 5.679,-10.983 17.963,-23.675 44.381,-23.112 0,0 15.746,38.194 93.05,21.042 0.312,6.101 0.41,12.326 0.41,18.526 0,34.005 -15.015,55.075 -27.612,66.762 -15.872,14.727 -33.494,20.072 -41.466,20.072 -7.972,0 -25.594,-5.345 -41.466,-20.072 -12.597,-11.687 -27.612,-32.757 -27.612,-66.762 0.001,-5.501 0.081,-11.021 0.315,-16.456 z"
     id="path5"
     style="fill:#60c1ba;fill-opacity:1" /><path
     inkscape:connector-curvature="0"
     d="m 324.926,298.327 c -4.127,-25.665 -12.625,-58.724 -29.668,-70.472 -11.638,-8.024 -52.243,-29.718 -69.582,-38.982 l -0.3,-0.16 c -1.982,-1.059 -4.402,-0.847 -6.17,0.541 -9.083,7.131 -19.033,11.937 -29.573,14.284 -1.862,0.415 -3.39,1.738 -4.067,3.521 L 174.833,235.35 164.1,207.059 c -0.677,-1.783 -2.205,-3.106 -4.067,-3.521 -10.54,-2.347 -20.49,-7.153 -29.573,-14.284 -1.768,-1.388 -4.188,-1.601 -6.17,-0.541 -17.133,9.155 -58.235,31.291 -69.831,39.107 -19.619,13.217 -28.198,61.052 -29.718,70.507 -0.151,0.938 -0.063,1.897 0.253,2.792 0.702,1.982 18.708,48.548 149.839,48.548 131.131,0 149.137,-46.566 149.839,-48.548 0.317,-0.895 0.405,-1.855 0.254,-2.792 z m -57.85657,-34.67478 -27.72254,-7.93046 -26.18089,5.36103 0,7.77321 51.334,0 z"
     id="path7"
     style="fill:#60c1ba;fill-opacity:1"
     sodipodi:nodetypes="cccccccccccccccssccccccc" /></g><path
   style="fill:#60c1ba;fill-opacity:1;stroke:#afafaf;stroke-width:0.20268798;stroke-linejoin:round;stroke-miterlimit:4;stroke-opacity:1;stroke-dasharray:none"
   d=""
   id="path3805"
   inkscape:connector-curvature="0"
   transform="scale(0.28890429,0.28890429)" /><path
   style="fill:#60c1ba;fill-opacity:1;stroke:#afafaf;stroke-width:0.20268798;stroke-linejoin:round;stroke-miterlimit:4;stroke-opacity:1;stroke-dasharray:none"
   d=""
   id="path3807"
   inkscape:connector-curvature="0"
   transform="scale(0.28890429,0.28890429)" /><path
   style="fill:#60c1ba;fill-opacity:1;stroke:#afafaf;stroke-width:0.20268798;stroke-linejoin:round;stroke-miterlimit:4;stroke-opacity:1;stroke-dasharray:none"
   d=""
   id="path3813"
   inkscape:connector-curvature="0"
   transform="scale(0.28890429,0.28890429)" /></svg>