<?xml version="1.0" encoding="UTF-8" standalone="no"?>
<!-- Generator: Adobe Illustrator 19.0.0, SVG Export Plug-In . SVG Version: 6.00 Build 0)  -->

<svg
   xmlns:dc="http://purl.org/dc/elements/1.1/"
   xmlns:cc="http://creativecommons.org/ns#"
   xmlns:rdf="http://www.w3.org/1999/02/22-rdf-syntax-ns#"
   xmlns:svg="http://www.w3.org/2000/svg"
   xmlns="http://www.w3.org/2000/svg"
   xmlns:sodipodi="http://sodipodi.sourceforge.net/DTD/sodipodi-0.dtd"
   xmlns:inkscape="http://www.inkscape.org/namespaces/inkscape"
   version="1.1"
   id="Layer_1"
   x="0px"
   y="0px"
   viewBox="0 0 29.813369 29.813369"
   xml:space="preserve"
   width="35"
   height="35"
   inkscape:version="0.48.5 r10040"
   sodipodi:docname="workflow.svg"><metadata
   id="metadata39"><rdf:RDF><cc:Work
       rdf:about=""><dc:format>image/svg+xml</dc:format><dc:type
         rdf:resource="http://purl.org/dc/dcmitype/StillImage" /></cc:Work></rdf:RDF></metadata><defs
   id="defs37" /><sodipodi:namedview
   pagecolor="#ffffff"
   bordercolor="#666666"
   borderopacity="1"
   objecttolerance="10"
   gridtolerance="10"
   guidetolerance="10"
   inkscape:pageopacity="0"
   inkscape:pageshadow="2"
   inkscape:window-width="1366"
   inkscape:window-height="716"
   id="namedview35"
   showgrid="false"
   inkscape:zoom="5.2149125"
   inkscape:cx="48.876005"
   inkscape:cy="42.40003"
   inkscape:window-x="-8"
   inkscape:window-y="-8"
   inkscape:window-maximized="1"
   inkscape:current-layer="Layer_1" />
<path
   d="M 21.314711,8.0919395 C 20.912139,4.6847986 18.014268,2.0419493 14.498883,2.0419493 c -3.515382,0 -6.4132479,2.6428493 -6.8157746,6.0499902 -2.4402691,0 -4.4187275,1.9781985 -4.4187275,4.4184675 0,2.440278 1.9781974,4.418468 4.4184738,4.418468 H 21.314964 c 2.440278,0 4.418475,-1.97819 4.418475,-4.418468 0,-2.440269 -1.978459,-4.4184675 -4.418728,-4.4184675 z"
   id="path3"
   style="fill:#949494;fill-opacity:1"
   inkscape:connector-curvature="0" />
<g
   id="g5"
   transform="translate(0,-406.31363)">
</g>
<g
   id="g7"
   transform="translate(0,-406.31363)">
</g>
<g
   id="g9"
   transform="translate(0,-406.31363)">
</g>
<g
   id="g11"
   transform="translate(0,-406.31363)">
</g>
<g
   id="g13"
   transform="translate(0,-406.31363)">
</g>
<g
   id="g15"
   transform="translate(0,-406.31363)">
</g>
<g
   id="g17"
   transform="translate(0,-406.31363)">
</g>
<g
   id="g19"
   transform="translate(0,-406.31363)">
</g>
<g
   id="g21"
   transform="translate(0,-406.31363)">
</g>
<g
   id="g23"
   transform="translate(0,-406.31363)">
</g>
<g
   id="g25"
   transform="translate(0,-406.31363)">
</g>
<g
   id="g27"
   transform="translate(0,-406.31363)">
</g>
<g
   id="g29"
   transform="translate(0,-406.31363)">
</g>
<g
   id="g31"
   transform="translate(0,-406.31363)">
</g>
<g
   id="g33"
   transform="translate(0,-406.31363)">
</g>
</svg>